%TF.GenerationSoftware,KiCad,Pcbnew,9.0.6-9.0.6~ubuntu24.04.1*%
%TF.CreationDate,2025-12-11T16:51:46+00:00*%
%TF.ProjectId,Ventole_Nrf52,56656e74-6f6c-4655-9f4e-726635322e6b,rev?*%
%TF.SameCoordinates,Original*%
%TF.FileFunction,Legend,Top*%
%TF.FilePolarity,Positive*%
%FSLAX46Y46*%
G04 Gerber Fmt 4.6, Leading zero omitted, Abs format (unit mm)*
G04 Created by KiCad (PCBNEW 9.0.6-9.0.6~ubuntu24.04.1) date 2025-12-11 16:51:46*
%MOMM*%
%LPD*%
G01*
G04 APERTURE LIST*
%ADD10C,0.200000*%
%ADD11C,0.150000*%
%ADD12C,0.120000*%
G04 APERTURE END LIST*
D10*
X140074435Y-106106028D02*
X140574435Y-107606028D01*
X140574435Y-107606028D02*
X141074435Y-106106028D01*
X142145863Y-107534600D02*
X142003006Y-107606028D01*
X142003006Y-107606028D02*
X141717292Y-107606028D01*
X141717292Y-107606028D02*
X141574434Y-107534600D01*
X141574434Y-107534600D02*
X141503006Y-107391742D01*
X141503006Y-107391742D02*
X141503006Y-106820314D01*
X141503006Y-106820314D02*
X141574434Y-106677457D01*
X141574434Y-106677457D02*
X141717292Y-106606028D01*
X141717292Y-106606028D02*
X142003006Y-106606028D01*
X142003006Y-106606028D02*
X142145863Y-106677457D01*
X142145863Y-106677457D02*
X142217292Y-106820314D01*
X142217292Y-106820314D02*
X142217292Y-106963171D01*
X142217292Y-106963171D02*
X141503006Y-107106028D01*
X142860148Y-106606028D02*
X142860148Y-107606028D01*
X142860148Y-106748885D02*
X142931577Y-106677457D01*
X142931577Y-106677457D02*
X143074434Y-106606028D01*
X143074434Y-106606028D02*
X143288720Y-106606028D01*
X143288720Y-106606028D02*
X143431577Y-106677457D01*
X143431577Y-106677457D02*
X143503006Y-106820314D01*
X143503006Y-106820314D02*
X143503006Y-107606028D01*
X144003006Y-106606028D02*
X144574434Y-106606028D01*
X144217291Y-106106028D02*
X144217291Y-107391742D01*
X144217291Y-107391742D02*
X144288720Y-107534600D01*
X144288720Y-107534600D02*
X144431577Y-107606028D01*
X144431577Y-107606028D02*
X144574434Y-107606028D01*
X145288720Y-107606028D02*
X145145863Y-107534600D01*
X145145863Y-107534600D02*
X145074434Y-107463171D01*
X145074434Y-107463171D02*
X145003006Y-107320314D01*
X145003006Y-107320314D02*
X145003006Y-106891742D01*
X145003006Y-106891742D02*
X145074434Y-106748885D01*
X145074434Y-106748885D02*
X145145863Y-106677457D01*
X145145863Y-106677457D02*
X145288720Y-106606028D01*
X145288720Y-106606028D02*
X145503006Y-106606028D01*
X145503006Y-106606028D02*
X145645863Y-106677457D01*
X145645863Y-106677457D02*
X145717292Y-106748885D01*
X145717292Y-106748885D02*
X145788720Y-106891742D01*
X145788720Y-106891742D02*
X145788720Y-107320314D01*
X145788720Y-107320314D02*
X145717292Y-107463171D01*
X145717292Y-107463171D02*
X145645863Y-107534600D01*
X145645863Y-107534600D02*
X145503006Y-107606028D01*
X145503006Y-107606028D02*
X145288720Y-107606028D01*
X146645863Y-107606028D02*
X146503006Y-107534600D01*
X146503006Y-107534600D02*
X146431577Y-107391742D01*
X146431577Y-107391742D02*
X146431577Y-106106028D01*
X147788720Y-107534600D02*
X147645863Y-107606028D01*
X147645863Y-107606028D02*
X147360149Y-107606028D01*
X147360149Y-107606028D02*
X147217291Y-107534600D01*
X147217291Y-107534600D02*
X147145863Y-107391742D01*
X147145863Y-107391742D02*
X147145863Y-106820314D01*
X147145863Y-106820314D02*
X147217291Y-106677457D01*
X147217291Y-106677457D02*
X147360149Y-106606028D01*
X147360149Y-106606028D02*
X147645863Y-106606028D01*
X147645863Y-106606028D02*
X147788720Y-106677457D01*
X147788720Y-106677457D02*
X147860149Y-106820314D01*
X147860149Y-106820314D02*
X147860149Y-106963171D01*
X147860149Y-106963171D02*
X147145863Y-107106028D01*
X150503005Y-107463171D02*
X150431577Y-107534600D01*
X150431577Y-107534600D02*
X150217291Y-107606028D01*
X150217291Y-107606028D02*
X150074434Y-107606028D01*
X150074434Y-107606028D02*
X149860148Y-107534600D01*
X149860148Y-107534600D02*
X149717291Y-107391742D01*
X149717291Y-107391742D02*
X149645862Y-107248885D01*
X149645862Y-107248885D02*
X149574434Y-106963171D01*
X149574434Y-106963171D02*
X149574434Y-106748885D01*
X149574434Y-106748885D02*
X149645862Y-106463171D01*
X149645862Y-106463171D02*
X149717291Y-106320314D01*
X149717291Y-106320314D02*
X149860148Y-106177457D01*
X149860148Y-106177457D02*
X150074434Y-106106028D01*
X150074434Y-106106028D02*
X150217291Y-106106028D01*
X150217291Y-106106028D02*
X150431577Y-106177457D01*
X150431577Y-106177457D02*
X150503005Y-106248885D01*
X151788720Y-107606028D02*
X151788720Y-106820314D01*
X151788720Y-106820314D02*
X151717291Y-106677457D01*
X151717291Y-106677457D02*
X151574434Y-106606028D01*
X151574434Y-106606028D02*
X151288720Y-106606028D01*
X151288720Y-106606028D02*
X151145862Y-106677457D01*
X151788720Y-107534600D02*
X151645862Y-107606028D01*
X151645862Y-107606028D02*
X151288720Y-107606028D01*
X151288720Y-107606028D02*
X151145862Y-107534600D01*
X151145862Y-107534600D02*
X151074434Y-107391742D01*
X151074434Y-107391742D02*
X151074434Y-107248885D01*
X151074434Y-107248885D02*
X151145862Y-107106028D01*
X151145862Y-107106028D02*
X151288720Y-107034600D01*
X151288720Y-107034600D02*
X151645862Y-107034600D01*
X151645862Y-107034600D02*
X151788720Y-106963171D01*
X152503005Y-107606028D02*
X152503005Y-106606028D01*
X152503005Y-106748885D02*
X152574434Y-106677457D01*
X152574434Y-106677457D02*
X152717291Y-106606028D01*
X152717291Y-106606028D02*
X152931577Y-106606028D01*
X152931577Y-106606028D02*
X153074434Y-106677457D01*
X153074434Y-106677457D02*
X153145863Y-106820314D01*
X153145863Y-106820314D02*
X153145863Y-107606028D01*
X153145863Y-106820314D02*
X153217291Y-106677457D01*
X153217291Y-106677457D02*
X153360148Y-106606028D01*
X153360148Y-106606028D02*
X153574434Y-106606028D01*
X153574434Y-106606028D02*
X153717291Y-106677457D01*
X153717291Y-106677457D02*
X153788720Y-106820314D01*
X153788720Y-106820314D02*
X153788720Y-107606028D01*
X154503005Y-106606028D02*
X154503005Y-108106028D01*
X154503005Y-106677457D02*
X154645863Y-106606028D01*
X154645863Y-106606028D02*
X154931577Y-106606028D01*
X154931577Y-106606028D02*
X155074434Y-106677457D01*
X155074434Y-106677457D02*
X155145863Y-106748885D01*
X155145863Y-106748885D02*
X155217291Y-106891742D01*
X155217291Y-106891742D02*
X155217291Y-107320314D01*
X155217291Y-107320314D02*
X155145863Y-107463171D01*
X155145863Y-107463171D02*
X155074434Y-107534600D01*
X155074434Y-107534600D02*
X154931577Y-107606028D01*
X154931577Y-107606028D02*
X154645863Y-107606028D01*
X154645863Y-107606028D02*
X154503005Y-107534600D01*
X156431577Y-107534600D02*
X156288720Y-107606028D01*
X156288720Y-107606028D02*
X156003006Y-107606028D01*
X156003006Y-107606028D02*
X155860148Y-107534600D01*
X155860148Y-107534600D02*
X155788720Y-107391742D01*
X155788720Y-107391742D02*
X155788720Y-106820314D01*
X155788720Y-106820314D02*
X155860148Y-106677457D01*
X155860148Y-106677457D02*
X156003006Y-106606028D01*
X156003006Y-106606028D02*
X156288720Y-106606028D01*
X156288720Y-106606028D02*
X156431577Y-106677457D01*
X156431577Y-106677457D02*
X156503006Y-106820314D01*
X156503006Y-106820314D02*
X156503006Y-106963171D01*
X156503006Y-106963171D02*
X155788720Y-107106028D01*
X157145862Y-107606028D02*
X157145862Y-106606028D01*
X157145862Y-106891742D02*
X157217291Y-106748885D01*
X157217291Y-106748885D02*
X157288720Y-106677457D01*
X157288720Y-106677457D02*
X157431577Y-106606028D01*
X157431577Y-106606028D02*
X157574434Y-106606028D01*
X159717290Y-106820314D02*
X159931576Y-106891742D01*
X159931576Y-106891742D02*
X160003005Y-106963171D01*
X160003005Y-106963171D02*
X160074433Y-107106028D01*
X160074433Y-107106028D02*
X160074433Y-107320314D01*
X160074433Y-107320314D02*
X160003005Y-107463171D01*
X160003005Y-107463171D02*
X159931576Y-107534600D01*
X159931576Y-107534600D02*
X159788719Y-107606028D01*
X159788719Y-107606028D02*
X159217290Y-107606028D01*
X159217290Y-107606028D02*
X159217290Y-106106028D01*
X159217290Y-106106028D02*
X159717290Y-106106028D01*
X159717290Y-106106028D02*
X159860148Y-106177457D01*
X159860148Y-106177457D02*
X159931576Y-106248885D01*
X159931576Y-106248885D02*
X160003005Y-106391742D01*
X160003005Y-106391742D02*
X160003005Y-106534600D01*
X160003005Y-106534600D02*
X159931576Y-106677457D01*
X159931576Y-106677457D02*
X159860148Y-106748885D01*
X159860148Y-106748885D02*
X159717290Y-106820314D01*
X159717290Y-106820314D02*
X159217290Y-106820314D01*
X161431576Y-107606028D02*
X160717290Y-107606028D01*
X160717290Y-107606028D02*
X160717290Y-106106028D01*
X161931576Y-106820314D02*
X162431576Y-106820314D01*
X162645862Y-107606028D02*
X161931576Y-107606028D01*
X161931576Y-107606028D02*
X161931576Y-106106028D01*
X161931576Y-106106028D02*
X162645862Y-106106028D01*
X165217291Y-107606028D02*
X164360148Y-107606028D01*
X164788719Y-107606028D02*
X164788719Y-106106028D01*
X164788719Y-106106028D02*
X164645862Y-106320314D01*
X164645862Y-106320314D02*
X164503005Y-106463171D01*
X164503005Y-106463171D02*
X164360148Y-106534600D01*
X165860147Y-107463171D02*
X165931576Y-107534600D01*
X165931576Y-107534600D02*
X165860147Y-107606028D01*
X165860147Y-107606028D02*
X165788719Y-107534600D01*
X165788719Y-107534600D02*
X165860147Y-107463171D01*
X165860147Y-107463171D02*
X165860147Y-107606028D01*
X166860148Y-106106028D02*
X167003005Y-106106028D01*
X167003005Y-106106028D02*
X167145862Y-106177457D01*
X167145862Y-106177457D02*
X167217291Y-106248885D01*
X167217291Y-106248885D02*
X167288719Y-106391742D01*
X167288719Y-106391742D02*
X167360148Y-106677457D01*
X167360148Y-106677457D02*
X167360148Y-107034600D01*
X167360148Y-107034600D02*
X167288719Y-107320314D01*
X167288719Y-107320314D02*
X167217291Y-107463171D01*
X167217291Y-107463171D02*
X167145862Y-107534600D01*
X167145862Y-107534600D02*
X167003005Y-107606028D01*
X167003005Y-107606028D02*
X166860148Y-107606028D01*
X166860148Y-107606028D02*
X166717291Y-107534600D01*
X166717291Y-107534600D02*
X166645862Y-107463171D01*
X166645862Y-107463171D02*
X166574433Y-107320314D01*
X166574433Y-107320314D02*
X166503005Y-107034600D01*
X166503005Y-107034600D02*
X166503005Y-106677457D01*
X166503005Y-106677457D02*
X166574433Y-106391742D01*
X166574433Y-106391742D02*
X166645862Y-106248885D01*
X166645862Y-106248885D02*
X166717291Y-106177457D01*
X166717291Y-106177457D02*
X166860148Y-106106028D01*
D11*
X171984398Y-96424914D02*
X171898684Y-96382057D01*
X171898684Y-96382057D02*
X171770112Y-96382057D01*
X171770112Y-96382057D02*
X171641541Y-96424914D01*
X171641541Y-96424914D02*
X171555826Y-96510628D01*
X171555826Y-96510628D02*
X171512969Y-96596342D01*
X171512969Y-96596342D02*
X171470112Y-96767771D01*
X171470112Y-96767771D02*
X171470112Y-96896342D01*
X171470112Y-96896342D02*
X171512969Y-97067771D01*
X171512969Y-97067771D02*
X171555826Y-97153485D01*
X171555826Y-97153485D02*
X171641541Y-97239200D01*
X171641541Y-97239200D02*
X171770112Y-97282057D01*
X171770112Y-97282057D02*
X171855826Y-97282057D01*
X171855826Y-97282057D02*
X171984398Y-97239200D01*
X171984398Y-97239200D02*
X172027255Y-97196342D01*
X172027255Y-97196342D02*
X172027255Y-96896342D01*
X172027255Y-96896342D02*
X171855826Y-96896342D01*
X172412969Y-97282057D02*
X172412969Y-96382057D01*
X172412969Y-96382057D02*
X172927255Y-97282057D01*
X172927255Y-97282057D02*
X172927255Y-96382057D01*
X173355826Y-97282057D02*
X173355826Y-96382057D01*
X173355826Y-96382057D02*
X173570112Y-96382057D01*
X173570112Y-96382057D02*
X173698683Y-96424914D01*
X173698683Y-96424914D02*
X173784398Y-96510628D01*
X173784398Y-96510628D02*
X173827255Y-96596342D01*
X173827255Y-96596342D02*
X173870112Y-96767771D01*
X173870112Y-96767771D02*
X173870112Y-96896342D01*
X173870112Y-96896342D02*
X173827255Y-97067771D01*
X173827255Y-97067771D02*
X173784398Y-97153485D01*
X173784398Y-97153485D02*
X173698683Y-97239200D01*
X173698683Y-97239200D02*
X173570112Y-97282057D01*
X173570112Y-97282057D02*
X173355826Y-97282057D01*
X135312969Y-117789200D02*
X135998684Y-117789200D01*
X165112969Y-113410628D02*
X164812969Y-113410628D01*
X164812969Y-113882057D02*
X164812969Y-112982057D01*
X164812969Y-112982057D02*
X165241541Y-112982057D01*
X165541541Y-113624914D02*
X165970113Y-113624914D01*
X165455827Y-113882057D02*
X165755827Y-112982057D01*
X165755827Y-112982057D02*
X166055827Y-113882057D01*
X166355827Y-113882057D02*
X166355827Y-112982057D01*
X166355827Y-112982057D02*
X166870113Y-113882057D01*
X166870113Y-113882057D02*
X166870113Y-112982057D01*
X167770113Y-113882057D02*
X167255827Y-113882057D01*
X167512970Y-113882057D02*
X167512970Y-112982057D01*
X167512970Y-112982057D02*
X167427256Y-113110628D01*
X167427256Y-113110628D02*
X167341541Y-113196342D01*
X167341541Y-113196342D02*
X167255827Y-113239200D01*
X172562969Y-94039200D02*
X173248684Y-94039200D01*
X172905826Y-94382057D02*
X172905826Y-93696342D01*
X154112969Y-113410628D02*
X153812969Y-113410628D01*
X153812969Y-113882057D02*
X153812969Y-112982057D01*
X153812969Y-112982057D02*
X154241541Y-112982057D01*
X154541541Y-113624914D02*
X154970113Y-113624914D01*
X154455827Y-113882057D02*
X154755827Y-112982057D01*
X154755827Y-112982057D02*
X155055827Y-113882057D01*
X155355827Y-113882057D02*
X155355827Y-112982057D01*
X155355827Y-112982057D02*
X155870113Y-113882057D01*
X155870113Y-113882057D02*
X155870113Y-112982057D01*
X156255827Y-113067771D02*
X156298684Y-113024914D01*
X156298684Y-113024914D02*
X156384399Y-112982057D01*
X156384399Y-112982057D02*
X156598684Y-112982057D01*
X156598684Y-112982057D02*
X156684399Y-113024914D01*
X156684399Y-113024914D02*
X156727256Y-113067771D01*
X156727256Y-113067771D02*
X156770113Y-113153485D01*
X156770113Y-113153485D02*
X156770113Y-113239200D01*
X156770113Y-113239200D02*
X156727256Y-113367771D01*
X156727256Y-113367771D02*
X156212970Y-113882057D01*
X156212970Y-113882057D02*
X156770113Y-113882057D01*
X168812969Y-113789200D02*
X169498684Y-113789200D01*
X169155826Y-114132057D02*
X169155826Y-113446342D01*
X170277255Y-90932057D02*
X169977255Y-90503485D01*
X169762969Y-90932057D02*
X169762969Y-90032057D01*
X169762969Y-90032057D02*
X170105826Y-90032057D01*
X170105826Y-90032057D02*
X170191541Y-90074914D01*
X170191541Y-90074914D02*
X170234398Y-90117771D01*
X170234398Y-90117771D02*
X170277255Y-90203485D01*
X170277255Y-90203485D02*
X170277255Y-90332057D01*
X170277255Y-90332057D02*
X170234398Y-90417771D01*
X170234398Y-90417771D02*
X170191541Y-90460628D01*
X170191541Y-90460628D02*
X170105826Y-90503485D01*
X170105826Y-90503485D02*
X169762969Y-90503485D01*
X170620112Y-90889200D02*
X170705826Y-90932057D01*
X170705826Y-90932057D02*
X170877255Y-90932057D01*
X170877255Y-90932057D02*
X170962969Y-90889200D01*
X170962969Y-90889200D02*
X171005826Y-90803485D01*
X171005826Y-90803485D02*
X171005826Y-90760628D01*
X171005826Y-90760628D02*
X170962969Y-90674914D01*
X170962969Y-90674914D02*
X170877255Y-90632057D01*
X170877255Y-90632057D02*
X170748684Y-90632057D01*
X170748684Y-90632057D02*
X170662969Y-90589200D01*
X170662969Y-90589200D02*
X170620112Y-90503485D01*
X170620112Y-90503485D02*
X170620112Y-90460628D01*
X170620112Y-90460628D02*
X170662969Y-90374914D01*
X170662969Y-90374914D02*
X170748684Y-90332057D01*
X170748684Y-90332057D02*
X170877255Y-90332057D01*
X170877255Y-90332057D02*
X170962969Y-90374914D01*
X171262969Y-90332057D02*
X171605826Y-90332057D01*
X171391540Y-90032057D02*
X171391540Y-90803485D01*
X171391540Y-90803485D02*
X171434397Y-90889200D01*
X171434397Y-90889200D02*
X171520112Y-90932057D01*
X171520112Y-90932057D02*
X171605826Y-90932057D01*
X169770112Y-88389200D02*
X169898684Y-88432057D01*
X169898684Y-88432057D02*
X170112969Y-88432057D01*
X170112969Y-88432057D02*
X170198684Y-88389200D01*
X170198684Y-88389200D02*
X170241541Y-88346342D01*
X170241541Y-88346342D02*
X170284398Y-88260628D01*
X170284398Y-88260628D02*
X170284398Y-88174914D01*
X170284398Y-88174914D02*
X170241541Y-88089200D01*
X170241541Y-88089200D02*
X170198684Y-88046342D01*
X170198684Y-88046342D02*
X170112969Y-88003485D01*
X170112969Y-88003485D02*
X169941541Y-87960628D01*
X169941541Y-87960628D02*
X169855826Y-87917771D01*
X169855826Y-87917771D02*
X169812969Y-87874914D01*
X169812969Y-87874914D02*
X169770112Y-87789200D01*
X169770112Y-87789200D02*
X169770112Y-87703485D01*
X169770112Y-87703485D02*
X169812969Y-87617771D01*
X169812969Y-87617771D02*
X169855826Y-87574914D01*
X169855826Y-87574914D02*
X169941541Y-87532057D01*
X169941541Y-87532057D02*
X170155826Y-87532057D01*
X170155826Y-87532057D02*
X170284398Y-87574914D01*
X170584398Y-87532057D02*
X170798684Y-88432057D01*
X170798684Y-88432057D02*
X170970112Y-87789200D01*
X170970112Y-87789200D02*
X171141541Y-88432057D01*
X171141541Y-88432057D02*
X171355827Y-87532057D01*
X171698683Y-88432057D02*
X171698683Y-87532057D01*
X168227255Y-101482057D02*
X167927255Y-101053485D01*
X167712969Y-101482057D02*
X167712969Y-100582057D01*
X167712969Y-100582057D02*
X168055826Y-100582057D01*
X168055826Y-100582057D02*
X168141541Y-100624914D01*
X168141541Y-100624914D02*
X168184398Y-100667771D01*
X168184398Y-100667771D02*
X168227255Y-100753485D01*
X168227255Y-100753485D02*
X168227255Y-100882057D01*
X168227255Y-100882057D02*
X168184398Y-100967771D01*
X168184398Y-100967771D02*
X168141541Y-101010628D01*
X168141541Y-101010628D02*
X168055826Y-101053485D01*
X168055826Y-101053485D02*
X167712969Y-101053485D01*
X168570112Y-101439200D02*
X168698684Y-101482057D01*
X168698684Y-101482057D02*
X168912969Y-101482057D01*
X168912969Y-101482057D02*
X168998684Y-101439200D01*
X168998684Y-101439200D02*
X169041541Y-101396342D01*
X169041541Y-101396342D02*
X169084398Y-101310628D01*
X169084398Y-101310628D02*
X169084398Y-101224914D01*
X169084398Y-101224914D02*
X169041541Y-101139200D01*
X169041541Y-101139200D02*
X168998684Y-101096342D01*
X168998684Y-101096342D02*
X168912969Y-101053485D01*
X168912969Y-101053485D02*
X168741541Y-101010628D01*
X168741541Y-101010628D02*
X168655826Y-100967771D01*
X168655826Y-100967771D02*
X168612969Y-100924914D01*
X168612969Y-100924914D02*
X168570112Y-100839200D01*
X168570112Y-100839200D02*
X168570112Y-100753485D01*
X168570112Y-100753485D02*
X168612969Y-100667771D01*
X168612969Y-100667771D02*
X168655826Y-100624914D01*
X168655826Y-100624914D02*
X168741541Y-100582057D01*
X168741541Y-100582057D02*
X168955826Y-100582057D01*
X168955826Y-100582057D02*
X169084398Y-100624914D01*
X169341541Y-100582057D02*
X169855827Y-100582057D01*
X169598684Y-101482057D02*
X169598684Y-100582057D01*
X157812969Y-113789200D02*
X158498684Y-113789200D01*
X158155826Y-114132057D02*
X158155826Y-113446342D01*
X172512969Y-96032057D02*
X172512969Y-95132057D01*
X173112969Y-95132057D02*
X173284397Y-95132057D01*
X173284397Y-95132057D02*
X173370112Y-95174914D01*
X173370112Y-95174914D02*
X173455826Y-95260628D01*
X173455826Y-95260628D02*
X173498683Y-95432057D01*
X173498683Y-95432057D02*
X173498683Y-95732057D01*
X173498683Y-95732057D02*
X173455826Y-95903485D01*
X173455826Y-95903485D02*
X173370112Y-95989200D01*
X173370112Y-95989200D02*
X173284397Y-96032057D01*
X173284397Y-96032057D02*
X173112969Y-96032057D01*
X173112969Y-96032057D02*
X173027255Y-95989200D01*
X173027255Y-95989200D02*
X172941540Y-95903485D01*
X172941540Y-95903485D02*
X172898683Y-95732057D01*
X172898683Y-95732057D02*
X172898683Y-95432057D01*
X172898683Y-95432057D02*
X172941540Y-95260628D01*
X172941540Y-95260628D02*
X173027255Y-95174914D01*
X173027255Y-95174914D02*
X173112969Y-95132057D01*
X171112969Y-86839200D02*
X171798684Y-86839200D01*
X171455826Y-87182057D02*
X171455826Y-86496342D01*
X169720112Y-89639200D02*
X169848684Y-89682057D01*
X169848684Y-89682057D02*
X170062969Y-89682057D01*
X170062969Y-89682057D02*
X170148684Y-89639200D01*
X170148684Y-89639200D02*
X170191541Y-89596342D01*
X170191541Y-89596342D02*
X170234398Y-89510628D01*
X170234398Y-89510628D02*
X170234398Y-89424914D01*
X170234398Y-89424914D02*
X170191541Y-89339200D01*
X170191541Y-89339200D02*
X170148684Y-89296342D01*
X170148684Y-89296342D02*
X170062969Y-89253485D01*
X170062969Y-89253485D02*
X169891541Y-89210628D01*
X169891541Y-89210628D02*
X169805826Y-89167771D01*
X169805826Y-89167771D02*
X169762969Y-89124914D01*
X169762969Y-89124914D02*
X169720112Y-89039200D01*
X169720112Y-89039200D02*
X169720112Y-88953485D01*
X169720112Y-88953485D02*
X169762969Y-88867771D01*
X169762969Y-88867771D02*
X169805826Y-88824914D01*
X169805826Y-88824914D02*
X169891541Y-88782057D01*
X169891541Y-88782057D02*
X170105826Y-88782057D01*
X170105826Y-88782057D02*
X170234398Y-88824914D01*
X170534398Y-88782057D02*
X170748684Y-89682057D01*
X170748684Y-89682057D02*
X170920112Y-89039200D01*
X170920112Y-89039200D02*
X171091541Y-89682057D01*
X171091541Y-89682057D02*
X171305827Y-88782057D01*
X172162969Y-89596342D02*
X172120112Y-89639200D01*
X172120112Y-89639200D02*
X171991540Y-89682057D01*
X171991540Y-89682057D02*
X171905826Y-89682057D01*
X171905826Y-89682057D02*
X171777255Y-89639200D01*
X171777255Y-89639200D02*
X171691540Y-89553485D01*
X171691540Y-89553485D02*
X171648683Y-89467771D01*
X171648683Y-89467771D02*
X171605826Y-89296342D01*
X171605826Y-89296342D02*
X171605826Y-89167771D01*
X171605826Y-89167771D02*
X171648683Y-88996342D01*
X171648683Y-88996342D02*
X171691540Y-88910628D01*
X171691540Y-88910628D02*
X171777255Y-88824914D01*
X171777255Y-88824914D02*
X171905826Y-88782057D01*
X171905826Y-88782057D02*
X171991540Y-88782057D01*
X171991540Y-88782057D02*
X172120112Y-88824914D01*
X172120112Y-88824914D02*
X172162969Y-88867771D01*
X171162969Y-85589200D02*
X171848684Y-85589200D01*
X143812969Y-118039200D02*
X144498684Y-118039200D01*
X144155826Y-118382057D02*
X144155826Y-117696342D01*
D10*
X172585600Y-83239850D02*
X172642742Y-83068422D01*
X172642742Y-83068422D02*
X172642742Y-82782707D01*
X172642742Y-82782707D02*
X172585600Y-82668422D01*
X172585600Y-82668422D02*
X172528457Y-82611279D01*
X172528457Y-82611279D02*
X172414171Y-82554136D01*
X172414171Y-82554136D02*
X172299885Y-82554136D01*
X172299885Y-82554136D02*
X172185600Y-82611279D01*
X172185600Y-82611279D02*
X172128457Y-82668422D01*
X172128457Y-82668422D02*
X172071314Y-82782707D01*
X172071314Y-82782707D02*
X172014171Y-83011279D01*
X172014171Y-83011279D02*
X171957028Y-83125564D01*
X171957028Y-83125564D02*
X171899885Y-83182707D01*
X171899885Y-83182707D02*
X171785600Y-83239850D01*
X171785600Y-83239850D02*
X171671314Y-83239850D01*
X171671314Y-83239850D02*
X171557028Y-83182707D01*
X171557028Y-83182707D02*
X171499885Y-83125564D01*
X171499885Y-83125564D02*
X171442742Y-83011279D01*
X171442742Y-83011279D02*
X171442742Y-82725564D01*
X171442742Y-82725564D02*
X171499885Y-82554136D01*
X171442742Y-82154136D02*
X172642742Y-81868422D01*
X172642742Y-81868422D02*
X171785600Y-81639850D01*
X171785600Y-81639850D02*
X172642742Y-81411279D01*
X172642742Y-81411279D02*
X171442742Y-81125565D01*
X172642742Y-80668421D02*
X171442742Y-80668421D01*
X171442742Y-80668421D02*
X171442742Y-80382707D01*
X171442742Y-80382707D02*
X171499885Y-80211278D01*
X171499885Y-80211278D02*
X171614171Y-80096993D01*
X171614171Y-80096993D02*
X171728457Y-80039850D01*
X171728457Y-80039850D02*
X171957028Y-79982707D01*
X171957028Y-79982707D02*
X172128457Y-79982707D01*
X172128457Y-79982707D02*
X172357028Y-80039850D01*
X172357028Y-80039850D02*
X172471314Y-80096993D01*
X172471314Y-80096993D02*
X172585600Y-80211278D01*
X172585600Y-80211278D02*
X172642742Y-80382707D01*
X172642742Y-80382707D02*
X172642742Y-80668421D01*
D11*
X153488095Y-102454819D02*
X153488095Y-103264342D01*
X153488095Y-103264342D02*
X153535714Y-103359580D01*
X153535714Y-103359580D02*
X153583333Y-103407200D01*
X153583333Y-103407200D02*
X153678571Y-103454819D01*
X153678571Y-103454819D02*
X153869047Y-103454819D01*
X153869047Y-103454819D02*
X153964285Y-103407200D01*
X153964285Y-103407200D02*
X154011904Y-103359580D01*
X154011904Y-103359580D02*
X154059523Y-103264342D01*
X154059523Y-103264342D02*
X154059523Y-102454819D01*
X155059523Y-103454819D02*
X154488095Y-103454819D01*
X154773809Y-103454819D02*
X154773809Y-102454819D01*
X154773809Y-102454819D02*
X154678571Y-102597676D01*
X154678571Y-102597676D02*
X154583333Y-102692914D01*
X154583333Y-102692914D02*
X154488095Y-102740533D01*
X167366667Y-95907200D02*
X167509524Y-95954819D01*
X167509524Y-95954819D02*
X167747619Y-95954819D01*
X167747619Y-95954819D02*
X167842857Y-95907200D01*
X167842857Y-95907200D02*
X167890476Y-95859580D01*
X167890476Y-95859580D02*
X167938095Y-95764342D01*
X167938095Y-95764342D02*
X167938095Y-95669104D01*
X167938095Y-95669104D02*
X167890476Y-95573866D01*
X167890476Y-95573866D02*
X167842857Y-95526247D01*
X167842857Y-95526247D02*
X167747619Y-95478628D01*
X167747619Y-95478628D02*
X167557143Y-95431009D01*
X167557143Y-95431009D02*
X167461905Y-95383390D01*
X167461905Y-95383390D02*
X167414286Y-95335771D01*
X167414286Y-95335771D02*
X167366667Y-95240533D01*
X167366667Y-95240533D02*
X167366667Y-95145295D01*
X167366667Y-95145295D02*
X167414286Y-95050057D01*
X167414286Y-95050057D02*
X167461905Y-95002438D01*
X167461905Y-95002438D02*
X167557143Y-94954819D01*
X167557143Y-94954819D02*
X167795238Y-94954819D01*
X167795238Y-94954819D02*
X167938095Y-95002438D01*
X168271429Y-94954819D02*
X168509524Y-95954819D01*
X168509524Y-95954819D02*
X168700000Y-95240533D01*
X168700000Y-95240533D02*
X168890476Y-95954819D01*
X168890476Y-95954819D02*
X169128572Y-94954819D01*
X170033333Y-95954819D02*
X169461905Y-95954819D01*
X169747619Y-95954819D02*
X169747619Y-94954819D01*
X169747619Y-94954819D02*
X169652381Y-95097676D01*
X169652381Y-95097676D02*
X169557143Y-95192914D01*
X169557143Y-95192914D02*
X169461905Y-95240533D01*
X149466666Y-116104819D02*
X149466666Y-116819104D01*
X149466666Y-116819104D02*
X149419047Y-116961961D01*
X149419047Y-116961961D02*
X149323809Y-117057200D01*
X149323809Y-117057200D02*
X149180952Y-117104819D01*
X149180952Y-117104819D02*
X149085714Y-117104819D01*
X149895238Y-116200057D02*
X149942857Y-116152438D01*
X149942857Y-116152438D02*
X150038095Y-116104819D01*
X150038095Y-116104819D02*
X150276190Y-116104819D01*
X150276190Y-116104819D02*
X150371428Y-116152438D01*
X150371428Y-116152438D02*
X150419047Y-116200057D01*
X150419047Y-116200057D02*
X150466666Y-116295295D01*
X150466666Y-116295295D02*
X150466666Y-116390533D01*
X150466666Y-116390533D02*
X150419047Y-116533390D01*
X150419047Y-116533390D02*
X149847619Y-117104819D01*
X149847619Y-117104819D02*
X150466666Y-117104819D01*
X131335714Y-84758557D02*
X131335714Y-83858557D01*
X131335714Y-83858557D02*
X131550000Y-83858557D01*
X131550000Y-83858557D02*
X131678571Y-83901414D01*
X131678571Y-83901414D02*
X131764286Y-83987128D01*
X131764286Y-83987128D02*
X131807143Y-84072842D01*
X131807143Y-84072842D02*
X131850000Y-84244271D01*
X131850000Y-84244271D02*
X131850000Y-84372842D01*
X131850000Y-84372842D02*
X131807143Y-84544271D01*
X131807143Y-84544271D02*
X131764286Y-84629985D01*
X131764286Y-84629985D02*
X131678571Y-84715700D01*
X131678571Y-84715700D02*
X131550000Y-84758557D01*
X131550000Y-84758557D02*
X131335714Y-84758557D01*
X132621429Y-83858557D02*
X132450000Y-83858557D01*
X132450000Y-83858557D02*
X132364286Y-83901414D01*
X132364286Y-83901414D02*
X132321429Y-83944271D01*
X132321429Y-83944271D02*
X132235714Y-84072842D01*
X132235714Y-84072842D02*
X132192857Y-84244271D01*
X132192857Y-84244271D02*
X132192857Y-84587128D01*
X132192857Y-84587128D02*
X132235714Y-84672842D01*
X132235714Y-84672842D02*
X132278571Y-84715700D01*
X132278571Y-84715700D02*
X132364286Y-84758557D01*
X132364286Y-84758557D02*
X132535714Y-84758557D01*
X132535714Y-84758557D02*
X132621429Y-84715700D01*
X132621429Y-84715700D02*
X132664286Y-84672842D01*
X132664286Y-84672842D02*
X132707143Y-84587128D01*
X132707143Y-84587128D02*
X132707143Y-84372842D01*
X132707143Y-84372842D02*
X132664286Y-84287128D01*
X132664286Y-84287128D02*
X132621429Y-84244271D01*
X132621429Y-84244271D02*
X132535714Y-84201414D01*
X132535714Y-84201414D02*
X132364286Y-84201414D01*
X132364286Y-84201414D02*
X132278571Y-84244271D01*
X132278571Y-84244271D02*
X132235714Y-84287128D01*
X132235714Y-84287128D02*
X132192857Y-84372842D01*
X143916666Y-114454819D02*
X143916666Y-115169104D01*
X143916666Y-115169104D02*
X143869047Y-115311961D01*
X143869047Y-115311961D02*
X143773809Y-115407200D01*
X143773809Y-115407200D02*
X143630952Y-115454819D01*
X143630952Y-115454819D02*
X143535714Y-115454819D01*
X144916666Y-115454819D02*
X144345238Y-115454819D01*
X144630952Y-115454819D02*
X144630952Y-114454819D01*
X144630952Y-114454819D02*
X144535714Y-114597676D01*
X144535714Y-114597676D02*
X144440476Y-114692914D01*
X144440476Y-114692914D02*
X144345238Y-114740533D01*
X134921428Y-83408557D02*
X134621428Y-82979985D01*
X134407142Y-83408557D02*
X134407142Y-82508557D01*
X134407142Y-82508557D02*
X134749999Y-82508557D01*
X134749999Y-82508557D02*
X134835714Y-82551414D01*
X134835714Y-82551414D02*
X134878571Y-82594271D01*
X134878571Y-82594271D02*
X134921428Y-82679985D01*
X134921428Y-82679985D02*
X134921428Y-82808557D01*
X134921428Y-82808557D02*
X134878571Y-82894271D01*
X134878571Y-82894271D02*
X134835714Y-82937128D01*
X134835714Y-82937128D02*
X134749999Y-82979985D01*
X134749999Y-82979985D02*
X134407142Y-82979985D01*
X135778571Y-83408557D02*
X135264285Y-83408557D01*
X135521428Y-83408557D02*
X135521428Y-82508557D01*
X135521428Y-82508557D02*
X135435714Y-82637128D01*
X135435714Y-82637128D02*
X135349999Y-82722842D01*
X135349999Y-82722842D02*
X135264285Y-82765700D01*
X136592857Y-82508557D02*
X136164285Y-82508557D01*
X136164285Y-82508557D02*
X136121428Y-82937128D01*
X136121428Y-82937128D02*
X136164285Y-82894271D01*
X136164285Y-82894271D02*
X136250000Y-82851414D01*
X136250000Y-82851414D02*
X136464285Y-82851414D01*
X136464285Y-82851414D02*
X136550000Y-82894271D01*
X136550000Y-82894271D02*
X136592857Y-82937128D01*
X136592857Y-82937128D02*
X136635714Y-83022842D01*
X136635714Y-83022842D02*
X136635714Y-83237128D01*
X136635714Y-83237128D02*
X136592857Y-83322842D01*
X136592857Y-83322842D02*
X136550000Y-83365700D01*
X136550000Y-83365700D02*
X136464285Y-83408557D01*
X136464285Y-83408557D02*
X136250000Y-83408557D01*
X136250000Y-83408557D02*
X136164285Y-83365700D01*
X136164285Y-83365700D02*
X136121428Y-83322842D01*
X135421428Y-88408557D02*
X135121428Y-87979985D01*
X134907142Y-88408557D02*
X134907142Y-87508557D01*
X134907142Y-87508557D02*
X135249999Y-87508557D01*
X135249999Y-87508557D02*
X135335714Y-87551414D01*
X135335714Y-87551414D02*
X135378571Y-87594271D01*
X135378571Y-87594271D02*
X135421428Y-87679985D01*
X135421428Y-87679985D02*
X135421428Y-87808557D01*
X135421428Y-87808557D02*
X135378571Y-87894271D01*
X135378571Y-87894271D02*
X135335714Y-87937128D01*
X135335714Y-87937128D02*
X135249999Y-87979985D01*
X135249999Y-87979985D02*
X134907142Y-87979985D01*
X136278571Y-88408557D02*
X135764285Y-88408557D01*
X136021428Y-88408557D02*
X136021428Y-87508557D01*
X136021428Y-87508557D02*
X135935714Y-87637128D01*
X135935714Y-87637128D02*
X135849999Y-87722842D01*
X135849999Y-87722842D02*
X135764285Y-87765700D01*
X137050000Y-87808557D02*
X137050000Y-88408557D01*
X136835714Y-87465700D02*
X136621428Y-88108557D01*
X136621428Y-88108557D02*
X137178571Y-88108557D01*
X135421428Y-91908557D02*
X135121428Y-91479985D01*
X134907142Y-91908557D02*
X134907142Y-91008557D01*
X134907142Y-91008557D02*
X135249999Y-91008557D01*
X135249999Y-91008557D02*
X135335714Y-91051414D01*
X135335714Y-91051414D02*
X135378571Y-91094271D01*
X135378571Y-91094271D02*
X135421428Y-91179985D01*
X135421428Y-91179985D02*
X135421428Y-91308557D01*
X135421428Y-91308557D02*
X135378571Y-91394271D01*
X135378571Y-91394271D02*
X135335714Y-91437128D01*
X135335714Y-91437128D02*
X135249999Y-91479985D01*
X135249999Y-91479985D02*
X134907142Y-91479985D01*
X136278571Y-91908557D02*
X135764285Y-91908557D01*
X136021428Y-91908557D02*
X136021428Y-91008557D01*
X136021428Y-91008557D02*
X135935714Y-91137128D01*
X135935714Y-91137128D02*
X135849999Y-91222842D01*
X135849999Y-91222842D02*
X135764285Y-91265700D01*
X136835714Y-91008557D02*
X136921428Y-91008557D01*
X136921428Y-91008557D02*
X137007142Y-91051414D01*
X137007142Y-91051414D02*
X137050000Y-91094271D01*
X137050000Y-91094271D02*
X137092857Y-91179985D01*
X137092857Y-91179985D02*
X137135714Y-91351414D01*
X137135714Y-91351414D02*
X137135714Y-91565700D01*
X137135714Y-91565700D02*
X137092857Y-91737128D01*
X137092857Y-91737128D02*
X137050000Y-91822842D01*
X137050000Y-91822842D02*
X137007142Y-91865700D01*
X137007142Y-91865700D02*
X136921428Y-91908557D01*
X136921428Y-91908557D02*
X136835714Y-91908557D01*
X136835714Y-91908557D02*
X136750000Y-91865700D01*
X136750000Y-91865700D02*
X136707142Y-91822842D01*
X136707142Y-91822842D02*
X136664285Y-91737128D01*
X136664285Y-91737128D02*
X136621428Y-91565700D01*
X136621428Y-91565700D02*
X136621428Y-91351414D01*
X136621428Y-91351414D02*
X136664285Y-91179985D01*
X136664285Y-91179985D02*
X136707142Y-91094271D01*
X136707142Y-91094271D02*
X136750000Y-91051414D01*
X136750000Y-91051414D02*
X136835714Y-91008557D01*
X131335714Y-88258557D02*
X131335714Y-87358557D01*
X131335714Y-87358557D02*
X131550000Y-87358557D01*
X131550000Y-87358557D02*
X131678571Y-87401414D01*
X131678571Y-87401414D02*
X131764286Y-87487128D01*
X131764286Y-87487128D02*
X131807143Y-87572842D01*
X131807143Y-87572842D02*
X131850000Y-87744271D01*
X131850000Y-87744271D02*
X131850000Y-87872842D01*
X131850000Y-87872842D02*
X131807143Y-88044271D01*
X131807143Y-88044271D02*
X131764286Y-88129985D01*
X131764286Y-88129985D02*
X131678571Y-88215700D01*
X131678571Y-88215700D02*
X131550000Y-88258557D01*
X131550000Y-88258557D02*
X131335714Y-88258557D01*
X132664286Y-87358557D02*
X132235714Y-87358557D01*
X132235714Y-87358557D02*
X132192857Y-87787128D01*
X132192857Y-87787128D02*
X132235714Y-87744271D01*
X132235714Y-87744271D02*
X132321429Y-87701414D01*
X132321429Y-87701414D02*
X132535714Y-87701414D01*
X132535714Y-87701414D02*
X132621429Y-87744271D01*
X132621429Y-87744271D02*
X132664286Y-87787128D01*
X132664286Y-87787128D02*
X132707143Y-87872842D01*
X132707143Y-87872842D02*
X132707143Y-88087128D01*
X132707143Y-88087128D02*
X132664286Y-88172842D01*
X132664286Y-88172842D02*
X132621429Y-88215700D01*
X132621429Y-88215700D02*
X132535714Y-88258557D01*
X132535714Y-88258557D02*
X132321429Y-88258557D01*
X132321429Y-88258557D02*
X132235714Y-88215700D01*
X132235714Y-88215700D02*
X132192857Y-88172842D01*
X170916666Y-115754819D02*
X170916666Y-116469104D01*
X170916666Y-116469104D02*
X170869047Y-116611961D01*
X170869047Y-116611961D02*
X170773809Y-116707200D01*
X170773809Y-116707200D02*
X170630952Y-116754819D01*
X170630952Y-116754819D02*
X170535714Y-116754819D01*
X171297619Y-115754819D02*
X171916666Y-115754819D01*
X171916666Y-115754819D02*
X171583333Y-116135771D01*
X171583333Y-116135771D02*
X171726190Y-116135771D01*
X171726190Y-116135771D02*
X171821428Y-116183390D01*
X171821428Y-116183390D02*
X171869047Y-116231009D01*
X171869047Y-116231009D02*
X171916666Y-116326247D01*
X171916666Y-116326247D02*
X171916666Y-116564342D01*
X171916666Y-116564342D02*
X171869047Y-116659580D01*
X171869047Y-116659580D02*
X171821428Y-116707200D01*
X171821428Y-116707200D02*
X171726190Y-116754819D01*
X171726190Y-116754819D02*
X171440476Y-116754819D01*
X171440476Y-116754819D02*
X171345238Y-116707200D01*
X171345238Y-116707200D02*
X171297619Y-116659580D01*
X162464286Y-89460557D02*
X162978572Y-89460557D01*
X162721429Y-90360557D02*
X162721429Y-89460557D01*
X163278571Y-90360557D02*
X163278571Y-89460557D01*
X163278571Y-89460557D02*
X163621428Y-89460557D01*
X163621428Y-89460557D02*
X163707143Y-89503414D01*
X163707143Y-89503414D02*
X163750000Y-89546271D01*
X163750000Y-89546271D02*
X163792857Y-89631985D01*
X163792857Y-89631985D02*
X163792857Y-89760557D01*
X163792857Y-89760557D02*
X163750000Y-89846271D01*
X163750000Y-89846271D02*
X163707143Y-89889128D01*
X163707143Y-89889128D02*
X163621428Y-89931985D01*
X163621428Y-89931985D02*
X163278571Y-89931985D01*
X164650000Y-90360557D02*
X164135714Y-90360557D01*
X164392857Y-90360557D02*
X164392857Y-89460557D01*
X164392857Y-89460557D02*
X164307143Y-89589128D01*
X164307143Y-89589128D02*
X164221428Y-89674842D01*
X164221428Y-89674842D02*
X164135714Y-89717700D01*
X175454819Y-87533333D02*
X176169104Y-87533333D01*
X176169104Y-87533333D02*
X176311961Y-87580952D01*
X176311961Y-87580952D02*
X176407200Y-87676190D01*
X176407200Y-87676190D02*
X176454819Y-87819047D01*
X176454819Y-87819047D02*
X176454819Y-87914285D01*
X175454819Y-86628571D02*
X175454819Y-86819047D01*
X175454819Y-86819047D02*
X175502438Y-86914285D01*
X175502438Y-86914285D02*
X175550057Y-86961904D01*
X175550057Y-86961904D02*
X175692914Y-87057142D01*
X175692914Y-87057142D02*
X175883390Y-87104761D01*
X175883390Y-87104761D02*
X176264342Y-87104761D01*
X176264342Y-87104761D02*
X176359580Y-87057142D01*
X176359580Y-87057142D02*
X176407200Y-87009523D01*
X176407200Y-87009523D02*
X176454819Y-86914285D01*
X176454819Y-86914285D02*
X176454819Y-86723809D01*
X176454819Y-86723809D02*
X176407200Y-86628571D01*
X176407200Y-86628571D02*
X176359580Y-86580952D01*
X176359580Y-86580952D02*
X176264342Y-86533333D01*
X176264342Y-86533333D02*
X176026247Y-86533333D01*
X176026247Y-86533333D02*
X175931009Y-86580952D01*
X175931009Y-86580952D02*
X175883390Y-86628571D01*
X175883390Y-86628571D02*
X175835771Y-86723809D01*
X175835771Y-86723809D02*
X175835771Y-86914285D01*
X175835771Y-86914285D02*
X175883390Y-87009523D01*
X175883390Y-87009523D02*
X175931009Y-87057142D01*
X175931009Y-87057142D02*
X176026247Y-87104761D01*
X131335714Y-91758557D02*
X131335714Y-90858557D01*
X131335714Y-90858557D02*
X131550000Y-90858557D01*
X131550000Y-90858557D02*
X131678571Y-90901414D01*
X131678571Y-90901414D02*
X131764286Y-90987128D01*
X131764286Y-90987128D02*
X131807143Y-91072842D01*
X131807143Y-91072842D02*
X131850000Y-91244271D01*
X131850000Y-91244271D02*
X131850000Y-91372842D01*
X131850000Y-91372842D02*
X131807143Y-91544271D01*
X131807143Y-91544271D02*
X131764286Y-91629985D01*
X131764286Y-91629985D02*
X131678571Y-91715700D01*
X131678571Y-91715700D02*
X131550000Y-91758557D01*
X131550000Y-91758557D02*
X131335714Y-91758557D01*
X132621429Y-91158557D02*
X132621429Y-91758557D01*
X132407143Y-90815700D02*
X132192857Y-91458557D01*
X132192857Y-91458557D02*
X132750000Y-91458557D01*
X177965700Y-99349999D02*
X178008557Y-99264285D01*
X178008557Y-99264285D02*
X178008557Y-99092856D01*
X178008557Y-99092856D02*
X177965700Y-99007142D01*
X177965700Y-99007142D02*
X177879985Y-98964285D01*
X177879985Y-98964285D02*
X177837128Y-98964285D01*
X177837128Y-98964285D02*
X177751414Y-99007142D01*
X177751414Y-99007142D02*
X177708557Y-99092856D01*
X177708557Y-99092856D02*
X177708557Y-99221428D01*
X177708557Y-99221428D02*
X177665700Y-99307142D01*
X177665700Y-99307142D02*
X177579985Y-99349999D01*
X177579985Y-99349999D02*
X177537128Y-99349999D01*
X177537128Y-99349999D02*
X177451414Y-99307142D01*
X177451414Y-99307142D02*
X177408557Y-99221428D01*
X177408557Y-99221428D02*
X177408557Y-99092856D01*
X177408557Y-99092856D02*
X177451414Y-99007142D01*
X177965700Y-98235714D02*
X178008557Y-98321428D01*
X178008557Y-98321428D02*
X178008557Y-98492857D01*
X178008557Y-98492857D02*
X177965700Y-98578571D01*
X177965700Y-98578571D02*
X177879985Y-98621428D01*
X177879985Y-98621428D02*
X177537128Y-98621428D01*
X177537128Y-98621428D02*
X177451414Y-98578571D01*
X177451414Y-98578571D02*
X177408557Y-98492857D01*
X177408557Y-98492857D02*
X177408557Y-98321428D01*
X177408557Y-98321428D02*
X177451414Y-98235714D01*
X177451414Y-98235714D02*
X177537128Y-98192857D01*
X177537128Y-98192857D02*
X177622842Y-98192857D01*
X177622842Y-98192857D02*
X177708557Y-98621428D01*
X177408557Y-97807142D02*
X178008557Y-97807142D01*
X177494271Y-97807142D02*
X177451414Y-97764285D01*
X177451414Y-97764285D02*
X177408557Y-97678570D01*
X177408557Y-97678570D02*
X177408557Y-97549999D01*
X177408557Y-97549999D02*
X177451414Y-97464285D01*
X177451414Y-97464285D02*
X177537128Y-97421428D01*
X177537128Y-97421428D02*
X178008557Y-97421428D01*
X177965700Y-97035713D02*
X178008557Y-96949999D01*
X178008557Y-96949999D02*
X178008557Y-96778570D01*
X178008557Y-96778570D02*
X177965700Y-96692856D01*
X177965700Y-96692856D02*
X177879985Y-96649999D01*
X177879985Y-96649999D02*
X177837128Y-96649999D01*
X177837128Y-96649999D02*
X177751414Y-96692856D01*
X177751414Y-96692856D02*
X177708557Y-96778570D01*
X177708557Y-96778570D02*
X177708557Y-96907142D01*
X177708557Y-96907142D02*
X177665700Y-96992856D01*
X177665700Y-96992856D02*
X177579985Y-97035713D01*
X177579985Y-97035713D02*
X177537128Y-97035713D01*
X177537128Y-97035713D02*
X177451414Y-96992856D01*
X177451414Y-96992856D02*
X177408557Y-96907142D01*
X177408557Y-96907142D02*
X177408557Y-96778570D01*
X177408557Y-96778570D02*
X177451414Y-96692856D01*
D12*
%TO.C,U1*%
X143130000Y-80420000D02*
X143130000Y-81460000D01*
X143130000Y-100590000D02*
X143130000Y-99470000D01*
X143130000Y-100590000D02*
X144280000Y-100590000D01*
X160870000Y-77720000D02*
X143130000Y-77720000D01*
X160870000Y-80420000D02*
X160870000Y-81460000D01*
X160870000Y-100590000D02*
X159720000Y-100590000D01*
X160870000Y-100590000D02*
X160870000Y-99470000D01*
X142630000Y-77630000D02*
X142390000Y-77294000D01*
X142870000Y-77294000D01*
X142630000Y-77630000D01*
G36*
X142630000Y-77630000D02*
G01*
X142390000Y-77294000D01*
X142870000Y-77294000D01*
X142630000Y-77630000D01*
G37*
%TO.C,SW1*%
X167050000Y-96600000D02*
X170350000Y-96600000D01*
X167050000Y-96900000D02*
X167050000Y-96600000D01*
X167050000Y-99100000D02*
X167050000Y-99400000D01*
X167050000Y-99400000D02*
X170350000Y-99400000D01*
X170350000Y-96600000D02*
X170350000Y-96900000D01*
X170350000Y-99400000D02*
X170350000Y-99100000D01*
%TO.C,J2*%
X151090000Y-116410000D02*
X151090000Y-118910000D01*
X151090000Y-118910000D02*
X153590000Y-118910000D01*
X151390000Y-114590000D02*
X151390000Y-118610000D01*
X151390000Y-116300000D02*
X151890000Y-116300000D01*
X151390000Y-117110000D02*
X152390000Y-117110000D01*
X151390000Y-118610000D02*
X159110000Y-118610000D01*
X151890000Y-115090000D02*
X158610000Y-115090000D01*
X151890000Y-116300000D02*
X151890000Y-115090000D01*
X152390000Y-117110000D02*
X152390000Y-118610000D01*
X158110000Y-117110000D02*
X158110000Y-118610000D01*
X158610000Y-115090000D02*
X158610000Y-116300000D01*
X158610000Y-116300000D02*
X159110000Y-116300000D01*
X159110000Y-114590000D02*
X151390000Y-114590000D01*
X159110000Y-117110000D02*
X158110000Y-117110000D01*
X159110000Y-118610000D02*
X159110000Y-114590000D01*
%TO.C,D6*%
X130140000Y-85040000D02*
X130140000Y-86960000D01*
X130140000Y-86960000D02*
X133000000Y-86960000D01*
X133000000Y-85040000D02*
X130140000Y-85040000D01*
%TO.C,J1*%
X136880000Y-111972500D02*
X142660000Y-111972500D01*
X136880000Y-112492500D02*
X142660000Y-112492500D01*
X136880000Y-117792500D02*
X137470000Y-117792500D01*
X136880000Y-118412500D02*
X136880000Y-111972500D01*
X137470000Y-118412500D02*
X136880000Y-118412500D01*
X139530000Y-117792500D02*
X140010000Y-117792500D01*
X140010000Y-118412500D02*
X139530000Y-118412500D01*
X142070000Y-117792500D02*
X142660000Y-117792500D01*
X142660000Y-111972500D02*
X142660000Y-118412500D01*
X142660000Y-118412500D02*
X142070000Y-118412500D01*
X138940000Y-119372500D02*
X138060000Y-119372500D01*
X138500000Y-118762500D01*
X138940000Y-119372500D01*
G36*
X138940000Y-119372500D02*
G01*
X138060000Y-119372500D01*
X138500000Y-118762500D01*
X138940000Y-119372500D01*
G37*
%TO.C,R15*%
X136227064Y-85265000D02*
X135772936Y-85265000D01*
X136227064Y-86735000D02*
X135772936Y-86735000D01*
%TO.C,R14*%
X136227064Y-88765000D02*
X135772936Y-88765000D01*
X136227064Y-90235000D02*
X135772936Y-90235000D01*
%TO.C,R10*%
X136227064Y-92265000D02*
X135772936Y-92265000D01*
X136227064Y-93735000D02*
X135772936Y-93735000D01*
%TO.C,D5*%
X130140000Y-88540000D02*
X130140000Y-90460000D01*
X130140000Y-90460000D02*
X133000000Y-90460000D01*
X133000000Y-88540000D02*
X130140000Y-88540000D01*
%TO.C,J3*%
X161840000Y-116410000D02*
X161840000Y-118910000D01*
X161840000Y-118910000D02*
X164340000Y-118910000D01*
X162140000Y-114590000D02*
X162140000Y-118610000D01*
X162140000Y-116300000D02*
X162640000Y-116300000D01*
X162140000Y-117110000D02*
X163140000Y-117110000D01*
X162140000Y-118610000D02*
X169860000Y-118610000D01*
X162640000Y-115090000D02*
X169360000Y-115090000D01*
X162640000Y-116300000D02*
X162640000Y-115090000D01*
X163140000Y-117110000D02*
X163140000Y-118610000D01*
X168860000Y-117110000D02*
X168860000Y-118610000D01*
X169360000Y-115090000D02*
X169360000Y-116300000D01*
X169360000Y-116300000D02*
X169860000Y-116300000D01*
X169860000Y-114590000D02*
X162140000Y-114590000D01*
X169860000Y-117110000D02*
X168860000Y-117110000D01*
X169860000Y-118610000D02*
X169860000Y-114590000D01*
%TO.C,TP1*%
X162650000Y-90650000D02*
X164550000Y-90650000D01*
X162650000Y-92550000D02*
X162650000Y-90650000D01*
X164550000Y-90650000D02*
X164550000Y-92550000D01*
X164550000Y-92550000D02*
X162650000Y-92550000D01*
%TO.C,J6*%
X172050000Y-90850000D02*
X172050000Y-91350000D01*
X172340000Y-83990000D02*
X178060000Y-83990000D01*
X172340000Y-85060000D02*
X172340000Y-83990000D01*
X172340000Y-91140000D02*
X172340000Y-92210000D01*
X172340000Y-92210000D02*
X178060000Y-92210000D01*
X172350000Y-90850000D02*
X172050000Y-90850000D01*
X172640000Y-85060000D02*
X172340000Y-85060000D01*
X172640000Y-88100000D02*
X172640000Y-85060000D01*
X172640000Y-88100000D02*
X172640000Y-91140000D01*
X172640000Y-91140000D02*
X172340000Y-91140000D01*
X178060000Y-83990000D02*
X178060000Y-88100000D01*
X178060000Y-92210000D02*
X178060000Y-88100000D01*
%TO.C,D4*%
X130140000Y-92040000D02*
X130140000Y-93960000D01*
X130140000Y-93960000D02*
X133000000Y-93960000D01*
X133000000Y-92040000D02*
X130140000Y-92040000D01*
%TO.C,J7*%
X174095000Y-95635000D02*
X174095000Y-99505000D01*
X174095000Y-95635000D02*
X174665000Y-95635000D01*
X174095000Y-99505000D02*
X175117470Y-99505000D01*
X175425000Y-94240000D02*
X176755000Y-94240000D01*
X175732530Y-99505000D02*
X176755000Y-99505000D01*
X176185000Y-95635000D02*
X176755000Y-95635000D01*
X176755000Y-94240000D02*
X176755000Y-95000000D01*
X176755000Y-95635000D02*
X176755000Y-99505000D01*
%TD*%
M02*
