M48
; DRILL file {KiCad 9.0.6-9.0.6~ubuntu24.04.1} date 2025-12-11T16:51:57+0000
; FORMAT={-:-/ absolute / metric / decimal}
; #@! TF.CreationDate,2025-12-11T16:51:57+00:00
; #@! TF.GenerationSoftware,Kicad,Pcbnew,9.0.6-9.0.6~ubuntu24.04.1
; #@! TF.FileFunction,Plated,1,2,PTH
FMAT,2
METRIC
; #@! TA.AperFunction,Plated,PTH,ViaDrill
T1C0.300
; #@! TA.AperFunction,Plated,PTH,ComponentDrill
T2C0.500
; #@! TA.AperFunction,Plated,PTH,ComponentDrill
T3C0.700
; #@! TA.AperFunction,Plated,PTH,ComponentDrill
T4C1.000
; #@! TA.AperFunction,Plated,PTH,ComponentDrill
T5C1.100
%
G90
G05
T1
X129.0Y-78.0
X129.0Y-80.0
X129.0Y-82.0
X129.0Y-84.0
X129.0Y-86.0
X129.0Y-88.0
X129.0Y-90.0
X129.0Y-92.0
X129.0Y-94.0
X129.0Y-96.0
X129.0Y-98.0
X129.0Y-100.0
X129.0Y-102.0
X129.0Y-104.0
X129.0Y-106.0
X129.0Y-108.0
X129.0Y-110.0
X129.0Y-112.0
X129.0Y-114.0
X129.0Y-118.0
X131.0Y-78.0
X131.0Y-84.0
X131.0Y-96.0
X131.0Y-98.0
X131.0Y-100.0
X131.0Y-102.0
X131.0Y-104.0
X131.0Y-106.0
X131.0Y-108.0
X131.0Y-110.0
X131.0Y-112.0
X133.0Y-78.0
X133.0Y-80.0
X133.0Y-82.0
X133.0Y-84.0
X133.0Y-96.0
X133.0Y-98.0
X133.0Y-100.0
X133.0Y-110.0
X133.0Y-112.0
X133.0Y-114.0
X133.0Y-118.0
X134.0Y-87.8
X134.0Y-91.2
X135.0Y-78.0
X135.0Y-80.0
X135.0Y-82.0
X135.0Y-84.0
X135.0Y-96.0
X135.0Y-98.0
X135.0Y-100.0
X135.0Y-110.0
X135.0Y-112.0
X135.0Y-114.0
X135.0Y-116.0
X135.0Y-118.0
X137.0Y-78.0
X137.0Y-80.0
X137.0Y-82.0
X137.0Y-84.0
X137.0Y-96.0
X137.0Y-98.0
X137.0Y-100.0
X137.0Y-102.0
X137.626Y-105.925
X139.0Y-78.0
X139.0Y-80.0
X139.0Y-82.0
X139.0Y-84.0
X139.0Y-92.0
X139.0Y-94.0
X139.0Y-96.0
X139.0Y-98.0
X139.0Y-100.0
X139.0Y-104.0
X139.0Y-110.0
X139.0Y-112.0
X139.0Y-119.0
X140.8Y-105.75
X141.0Y-78.0
X141.0Y-80.0
X141.0Y-82.0
X141.0Y-84.0
X141.0Y-90.0
X141.0Y-92.0
X141.0Y-94.0
X141.0Y-100.0
X141.0Y-119.0
X141.8Y-97.0
X141.8Y-99.0
X143.0Y-100.0
X143.0Y-101.5
X143.0Y-108.0
X143.0Y-110.0
X143.0Y-112.0
X143.0Y-114.0
X143.0Y-116.0
X143.0Y-119.0
X144.6Y-94.8
X144.6Y-96.2
X144.8Y-83.2
X144.8Y-85.0
X144.8Y-102.0
X145.0Y-78.0
X145.0Y-80.0
X145.0Y-88.0
X145.0Y-90.0
X145.0Y-106.0
X145.0Y-108.0
X145.0Y-110.0
X145.0Y-112.0
X145.0Y-114.0
X145.0Y-116.0
X145.0Y-119.0
X147.0Y-78.0
X147.0Y-80.0
X147.0Y-88.0
X147.0Y-90.0
X147.0Y-104.0
X147.0Y-106.0
X147.0Y-108.0
X147.0Y-110.0
X147.0Y-112.0
X147.0Y-114.0
X147.0Y-116.0
X147.0Y-119.0
X147.8Y-96.0
X149.0Y-78.0
X149.0Y-80.0
X149.0Y-82.0
X149.0Y-84.0
X149.0Y-88.0
X149.0Y-90.0
X149.0Y-114.0
X149.0Y-116.0
X151.0Y-78.0
X151.0Y-80.0
X151.0Y-82.0
X151.0Y-84.0
X151.0Y-86.0
X151.0Y-88.0
X151.0Y-90.0
X151.0Y-92.0
X151.0Y-95.0
X151.2Y-102.4
X152.0Y-96.8
X152.25Y-106.0
X152.4Y-104.2
X152.635Y-99.235
X153.0Y-78.0
X153.0Y-80.0
X153.0Y-82.0
X153.0Y-84.0
X153.0Y-86.0
X153.0Y-88.0
X153.0Y-90.0
X153.0Y-93.0
X153.0Y-95.0
X154.0Y-98.5
X154.2Y-111.6
X155.0Y-78.0
X155.0Y-80.0
X155.0Y-82.0
X155.0Y-84.0
X155.0Y-86.0
X155.0Y-93.0
X155.0Y-95.0
X155.0Y-97.0
X156.0Y-98.5
X156.0Y-109.0
X157.0Y-78.0
X157.0Y-80.0
X157.0Y-82.0
X157.0Y-84.0
X157.0Y-86.0
X157.0Y-93.0
X157.0Y-97.0
X158.0Y-98.5
X158.0Y-109.0
X159.0Y-88.4
X159.0Y-95.0
X159.0Y-97.0
X159.0Y-116.0
X159.0Y-118.0
X160.0Y-109.0
X161.0Y-101.0
X161.0Y-116.0
X161.0Y-118.0
X161.75Y-90.75
X162.052Y-94.488
X162.2Y-98.8
X163.0Y-78.0
X163.0Y-80.0
X163.0Y-82.0
X163.0Y-98.0
X164.925Y-84.325
X165.0Y-78.0
X165.0Y-80.0
X165.0Y-82.0
X165.0Y-98.0
X165.0Y-100.0
X165.0Y-102.0
X165.0Y-104.0
X165.2Y-112.0
X165.354Y-93.98
X166.116Y-96.5
X166.15Y-89.35
X167.0Y-78.0
X167.0Y-80.0
X167.0Y-82.0
X167.0Y-92.0
X167.0Y-100.0
X167.0Y-109.0
X167.3Y-94.9
X169.0Y-78.0
X169.0Y-80.0
X169.0Y-82.0
X169.0Y-84.0
X169.0Y-87.75
X169.0Y-92.0
X169.0Y-94.0
X169.0Y-100.0
X169.0Y-109.0
X169.1Y-111.8
X171.0Y-78.0
X171.0Y-80.0
X171.0Y-82.0
X171.0Y-84.0
X171.0Y-87.75
X171.0Y-92.0
X171.0Y-100.0
X171.0Y-118.0
X173.0Y-78.0
X173.0Y-80.0
X173.0Y-82.0
X173.0Y-84.0
X173.0Y-92.0
X173.0Y-98.0
X173.0Y-100.0
X173.0Y-118.0
X175.0Y-78.0
X175.0Y-84.0
X175.0Y-86.0
X175.0Y-88.0
X175.0Y-90.0
X175.0Y-92.0
X175.0Y-100.0
X175.0Y-102.0
X175.0Y-104.0
X175.0Y-108.0
X175.0Y-114.0
X177.0Y-78.0
X177.0Y-80.0
X177.0Y-82.0
X177.0Y-84.0
X177.0Y-86.0
X177.0Y-88.0
X177.0Y-90.0
X177.0Y-92.0
X177.0Y-94.0
X177.0Y-96.0
X177.0Y-98.0
X177.0Y-100.0
X177.0Y-102.0
X177.0Y-104.0
X177.0Y-106.0
X177.0Y-108.0
X177.0Y-110.0
X177.0Y-112.0
X177.0Y-114.0
X177.0Y-118.0
T2
X173.5Y-85.6
X173.5Y-86.85
X173.5Y-88.1
X173.5Y-89.35
X173.5Y-90.6
X175.425Y-95.0
X175.425Y-96.27
X175.425Y-97.54
X175.425Y-98.81
T3
X163.6Y-91.6
T4
X154.0Y-116.3
X156.5Y-116.3
X164.75Y-116.3
X167.25Y-116.3
T5
X138.5Y-115.192
X141.04Y-115.192
M30
