%TF.GenerationSoftware,KiCad,Pcbnew,9.0.6-9.0.6~ubuntu24.04.1*%
%TF.CreationDate,2025-12-11T16:51:46+00:00*%
%TF.ProjectId,Ventole_Nrf52,56656e74-6f6c-4655-9f4e-726635322e6b,rev?*%
%TF.SameCoordinates,Original*%
%TF.FileFunction,Paste,Top*%
%TF.FilePolarity,Positive*%
%FSLAX46Y46*%
G04 Gerber Fmt 4.6, Leading zero omitted, Abs format (unit mm)*
G04 Created by KiCad (PCBNEW 9.0.6-9.0.6~ubuntu24.04.1) date 2025-12-11 16:51:46*
%MOMM*%
%LPD*%
G01*
G04 APERTURE LIST*
G04 Aperture macros list*
%AMRoundRect*
0 Rectangle with rounded corners*
0 $1 Rounding radius*
0 $2 $3 $4 $5 $6 $7 $8 $9 X,Y pos of 4 corners*
0 Add a 4 corners polygon primitive as box body*
4,1,4,$2,$3,$4,$5,$6,$7,$8,$9,$2,$3,0*
0 Add four circle primitives for the rounded corners*
1,1,$1+$1,$2,$3*
1,1,$1+$1,$4,$5*
1,1,$1+$1,$6,$7*
1,1,$1+$1,$8,$9*
0 Add four rect primitives between the rounded corners*
20,1,$1+$1,$2,$3,$4,$5,0*
20,1,$1+$1,$4,$5,$6,$7,0*
20,1,$1+$1,$6,$7,$8,$9,0*
20,1,$1+$1,$8,$9,$2,$3,0*%
G04 Aperture macros list end*
%ADD10R,1.800000X0.700000*%
%ADD11R,0.700000X1.800000*%
%ADD12R,0.900000X1.700000*%
%ADD13RoundRect,0.250000X-0.325000X-0.450000X0.325000X-0.450000X0.325000X0.450000X-0.325000X0.450000X0*%
%ADD14RoundRect,0.250000X0.350000X0.450000X-0.350000X0.450000X-0.350000X-0.450000X0.350000X-0.450000X0*%
G04 APERTURE END LIST*
D10*
%TO.C,U1*%
X143250000Y-78400000D03*
X143250000Y-79670000D03*
X143250000Y-82210000D03*
X143250000Y-83480000D03*
X143250000Y-84750000D03*
X143250000Y-86020000D03*
X143250000Y-87290000D03*
X143250000Y-88560000D03*
X143250000Y-89830000D03*
X143250000Y-91100000D03*
X143250000Y-92370000D03*
X143250000Y-93640000D03*
X143250000Y-94910000D03*
X143250000Y-96180000D03*
X143250000Y-97450000D03*
X143250000Y-98720000D03*
D11*
X145015000Y-100470000D03*
X146285000Y-100470000D03*
X147555000Y-100470000D03*
X148825000Y-100470000D03*
X150095000Y-100470000D03*
X151365000Y-100470000D03*
X152635000Y-100470000D03*
X153905000Y-100470000D03*
X155175000Y-100470000D03*
X156445000Y-100470000D03*
X157715000Y-100470000D03*
X158985000Y-100470000D03*
D10*
X160750000Y-98720000D03*
X160750000Y-97450000D03*
X160750000Y-96180000D03*
X160750000Y-94910000D03*
X160750000Y-93640000D03*
X160750000Y-92370000D03*
X160750000Y-91100000D03*
X160750000Y-89830000D03*
X160750000Y-88560000D03*
X160750000Y-87290000D03*
X160750000Y-86020000D03*
X160750000Y-84750000D03*
X160750000Y-83480000D03*
X160750000Y-82210000D03*
X160750000Y-79670000D03*
X160750000Y-78400000D03*
%TD*%
D12*
%TO.C,SW1*%
X167000000Y-98000000D03*
X170400000Y-98000000D03*
%TD*%
D13*
%TO.C,D6*%
X130975000Y-86000000D03*
X133025000Y-86000000D03*
%TD*%
D14*
%TO.C,R15*%
X137000000Y-86000000D03*
X135000000Y-86000000D03*
%TD*%
%TO.C,R14*%
X137000000Y-89500000D03*
X135000000Y-89500000D03*
%TD*%
%TO.C,R10*%
X137000000Y-93000000D03*
X135000000Y-93000000D03*
%TD*%
D13*
%TO.C,D5*%
X130975000Y-89500000D03*
X133025000Y-89500000D03*
%TD*%
%TO.C,D4*%
X130975000Y-93000000D03*
X133025000Y-93000000D03*
%TD*%
M02*
