%TF.GenerationSoftware,KiCad,Pcbnew,9.0.6-9.0.6~ubuntu24.04.1*%
%TF.CreationDate,2025-12-11T16:51:47+00:00*%
%TF.ProjectId,Ventole_Nrf52,56656e74-6f6c-4655-9f4e-726635322e6b,rev?*%
%TF.SameCoordinates,Original*%
%TF.FileFunction,Soldermask,Top*%
%TF.FilePolarity,Negative*%
%FSLAX46Y46*%
G04 Gerber Fmt 4.6, Leading zero omitted, Abs format (unit mm)*
G04 Created by KiCad (PCBNEW 9.0.6-9.0.6~ubuntu24.04.1) date 2025-12-11 16:51:47*
%MOMM*%
%LPD*%
G01*
G04 APERTURE LIST*
G04 Aperture macros list*
%AMRoundRect*
0 Rectangle with rounded corners*
0 $1 Rounding radius*
0 $2 $3 $4 $5 $6 $7 $8 $9 X,Y pos of 4 corners*
0 Add a 4 corners polygon primitive as box body*
4,1,4,$2,$3,$4,$5,$6,$7,$8,$9,$2,$3,0*
0 Add four circle primitives for the rounded corners*
1,1,$1+$1,$2,$3*
1,1,$1+$1,$4,$5*
1,1,$1+$1,$6,$7*
1,1,$1+$1,$8,$9*
0 Add four rect primitives between the rounded corners*
20,1,$1+$1,$2,$3,$4,$5,0*
20,1,$1+$1,$4,$5,$6,$7,0*
20,1,$1+$1,$6,$7,$8,$9,0*
20,1,$1+$1,$8,$9,$2,$3,0*%
G04 Aperture macros list end*
%ADD10R,1.800000X0.700000*%
%ADD11R,0.700000X1.800000*%
%ADD12R,0.900000X1.700000*%
%ADD13RoundRect,0.250000X-0.600000X-0.750000X0.600000X-0.750000X0.600000X0.750000X-0.600000X0.750000X0*%
%ADD14O,1.700000X2.000000*%
%ADD15RoundRect,0.250000X-0.325000X-0.450000X0.325000X-0.450000X0.325000X0.450000X-0.325000X0.450000X0*%
%ADD16RoundRect,0.249999X-0.850001X-0.850001X0.850001X-0.850001X0.850001X0.850001X-0.850001X0.850001X0*%
%ADD17C,2.200000*%
%ADD18RoundRect,0.250000X0.350000X0.450000X-0.350000X0.450000X-0.350000X-0.450000X0.350000X-0.450000X0*%
%ADD19R,1.500000X1.500000*%
%ADD20RoundRect,0.200000X0.450000X-0.200000X0.450000X0.200000X-0.450000X0.200000X-0.450000X-0.200000X0*%
%ADD21O,1.300000X0.800000*%
%ADD22R,1.200000X1.000000*%
%ADD23O,1.200000X1.000000*%
G04 APERTURE END LIST*
D10*
%TO.C,U1*%
X143250000Y-78400000D03*
X143250000Y-79670000D03*
X143250000Y-82210000D03*
X143250000Y-83480000D03*
X143250000Y-84750000D03*
X143250000Y-86020000D03*
X143250000Y-87290000D03*
X143250000Y-88560000D03*
X143250000Y-89830000D03*
X143250000Y-91100000D03*
X143250000Y-92370000D03*
X143250000Y-93640000D03*
X143250000Y-94910000D03*
X143250000Y-96180000D03*
X143250000Y-97450000D03*
X143250000Y-98720000D03*
D11*
X145015000Y-100470000D03*
X146285000Y-100470000D03*
X147555000Y-100470000D03*
X148825000Y-100470000D03*
X150095000Y-100470000D03*
X151365000Y-100470000D03*
X152635000Y-100470000D03*
X153905000Y-100470000D03*
X155175000Y-100470000D03*
X156445000Y-100470000D03*
X157715000Y-100470000D03*
X158985000Y-100470000D03*
D10*
X160750000Y-98720000D03*
X160750000Y-97450000D03*
X160750000Y-96180000D03*
X160750000Y-94910000D03*
X160750000Y-93640000D03*
X160750000Y-92370000D03*
X160750000Y-91100000D03*
X160750000Y-89830000D03*
X160750000Y-88560000D03*
X160750000Y-87290000D03*
X160750000Y-86020000D03*
X160750000Y-84750000D03*
X160750000Y-83480000D03*
X160750000Y-82210000D03*
X160750000Y-79670000D03*
X160750000Y-78400000D03*
%TD*%
D12*
%TO.C,SW1*%
X167000000Y-98000000D03*
X170400000Y-98000000D03*
%TD*%
D13*
%TO.C,J2*%
X154000000Y-116300000D03*
D14*
X156500000Y-116300000D03*
%TD*%
D15*
%TO.C,D6*%
X130975000Y-86000000D03*
X133025000Y-86000000D03*
%TD*%
D16*
%TO.C,J1*%
X138500000Y-115192500D03*
D17*
X141040000Y-115192500D03*
%TD*%
D18*
%TO.C,R15*%
X137000000Y-86000000D03*
X135000000Y-86000000D03*
%TD*%
D17*
%TO.C,H1*%
X131064000Y-80400000D03*
%TD*%
D18*
%TO.C,R14*%
X137000000Y-89500000D03*
X135000000Y-89500000D03*
%TD*%
%TO.C,R10*%
X137000000Y-93000000D03*
X135000000Y-93000000D03*
%TD*%
D15*
%TO.C,D5*%
X130975000Y-89500000D03*
X133025000Y-89500000D03*
%TD*%
D13*
%TO.C,J3*%
X164750000Y-116300000D03*
D14*
X167250000Y-116300000D03*
%TD*%
D19*
%TO.C,TP1*%
X163600000Y-91600000D03*
%TD*%
D17*
%TO.C,H4*%
X175006000Y-116250000D03*
%TD*%
D20*
%TO.C,J6*%
X173500000Y-90600000D03*
D21*
X173500000Y-89350000D03*
X173500000Y-88100000D03*
X173500000Y-86850000D03*
X173500000Y-85600000D03*
%TD*%
D17*
%TO.C,H2*%
X175006000Y-80400000D03*
%TD*%
D15*
%TO.C,D4*%
X130975000Y-93000000D03*
X133025000Y-93000000D03*
%TD*%
D17*
%TO.C,H3*%
X131064000Y-116250000D03*
%TD*%
D22*
%TO.C,J7*%
X175425000Y-95000000D03*
D23*
X175425000Y-96270000D03*
X175425000Y-97540000D03*
X175425000Y-98810000D03*
%TD*%
M02*
